HIERARCHY
ROOT Hips
{
	OFFSET 0.000000 0.000000 0.000000 
	CHANNELS 6 Xposition Yposition Zposition Zrotation Yrotation Xrotation
	JOINT LHipJoint
	{
		OFFSET 0.000000 0.000000 0.000000 
		CHANNELS 3 Zrotation Yrotation Xrotation
		JOINT LeftUpLeg
		{
			OFFSET 0.085211 -0.098391 0.069398 
			CHANNELS 3 Zrotation Yrotation Xrotation
			JOINT LeftLeg
			{
				OFFSET 0.149043 -0.409492 0.000000 
				CHANNELS 3 Zrotation Yrotation Xrotation
				JOINT LeftFoot
				{
					OFFSET 0.148229 -0.407256 0.000000 
					CHANNELS 3 Zrotation Yrotation Xrotation
					JOINT LeftToeBase
					{
						OFFSET 0.018174 -0.049932 0.125871 
						CHANNELS 3 Zrotation Yrotation Xrotation
						End Site
						{
							OFFSET 0.000000 -0.000000 0.067452 
						}
					}
				}
			}
		}
	}
	JOINT RHipJoint
	{
		OFFSET 0.000000 0.000000 0.000000 
		CHANNELS 3 Zrotation Yrotation Xrotation
		JOINT RightUpLeg
		{
			OFFSET -0.085218 -0.098391 0.069398 
			CHANNELS 3 Zrotation Yrotation Xrotation
			JOINT RightLeg
			{
				OFFSET -0.143476 -0.394198 0.000000 
				CHANNELS 3 Zrotation Yrotation Xrotation
				JOINT RightFoot
				{
					OFFSET -0.150616 -0.413812 0.000000 
					CHANNELS 3 Zrotation Yrotation Xrotation
					JOINT RightToeBase
					{
						OFFSET -0.014498 -0.039833 0.120145 
						CHANNELS 3 Zrotation Yrotation Xrotation
						End Site
						{
							OFFSET -0.000000 -0.000000 0.063476 
						}
					}
				}
			}
		}
	}
	JOINT LowerBack
	{
		OFFSET 0.000000 0.000000 0.000000 
		CHANNELS 3 Zrotation Yrotation Xrotation
		JOINT Spine
		{
			OFFSET -0.005353 0.127251 -0.015351 
			CHANNELS 3 Zrotation Yrotation Xrotation
			JOINT Spine1
			{
				OFFSET -0.000023 0.128558 0.000135 
				CHANNELS 3 Zrotation Yrotation Xrotation
				JOINT Neck
				{
					OFFSET 0.000000 0.000000 0.000000 
					CHANNELS 3 Zrotation Yrotation Xrotation
					JOINT Neck1
					{
						OFFSET -0.002290 0.105947 0.019868 
						CHANNELS 3 Zrotation Yrotation Xrotation
						JOINT Head
						{
							OFFSET 0.000583 0.106363 -0.028758 
							CHANNELS 3 Zrotation Yrotation Xrotation
							End Site
							{
								OFFSET 0.000777 0.111013 -0.012111 
							}
						}
					}
				}
				JOINT LeftShoulder
				{
					OFFSET 0.000000 0.000000 0.000000 
					CHANNELS 3 Zrotation Yrotation Xrotation
					JOINT LeftArm
					{
						OFFSET 0.233965 0.050822 -0.022904 
						CHANNELS 3 Zrotation Yrotation Xrotation
						JOINT LeftForeArm
						{
							OFFSET 0.310741 -0.000000 -0.000000 
							CHANNELS 3 Zrotation Yrotation Xrotation
							JOINT LeftHand
							{
								OFFSET 0.209882 -0.000000 0.000000 
								CHANNELS 3 Zrotation Yrotation Xrotation
								JOINT LeftFingerBase
								{
									OFFSET 0.000000 0.000000 0.000000 
									CHANNELS 3 Zrotation Yrotation Xrotation
									JOINT LeftHandIndex1
									{
										OFFSET 0.038924 -0.000000 0.000000 
										CHANNELS 3 Zrotation Yrotation Xrotation
										End Site
										{
											OFFSET 0.031381 -0.000000 0.000000 
										}
									}
								}
								JOINT LThumb
								{
									OFFSET 0.000000 0.000000 0.000000 
									CHANNELS 3 Zrotation Yrotation Xrotation
									End Site
									{
										OFFSET 0.031860 -0.000000 0.031860 
									}
								}
							}
						}
					}
				}
				JOINT RightShoulder
				{
					OFFSET 0.000000 0.000000 0.000000 
					CHANNELS 3 Zrotation Yrotation Xrotation
					JOINT RightArm
					{
						OFFSET -0.234616 0.031666 -0.004078 
						CHANNELS 3 Zrotation Yrotation Xrotation
						JOINT RightForeArm
						{
							OFFSET -0.310308 -0.000000 -0.000000 
							CHANNELS 3 Zrotation Yrotation Xrotation
							JOINT RightHand
							{
								OFFSET -0.209331 -0.000000 0.000000 
								CHANNELS 3 Zrotation Yrotation Xrotation
								JOINT RightFingerBase
								{
									OFFSET 0.000000 0.000000 0.000000 
									CHANNELS 3 Zrotation Yrotation Xrotation
									JOINT RightHandIndex1
									{
										OFFSET -0.039878 -0.000000 0.000000 
										CHANNELS 3 Zrotation Yrotation Xrotation
										End Site
										{
											OFFSET -0.032151 -0.000000 0.000000 
										}
									}
								}
								JOINT RThumb
								{
									OFFSET 0.000000 0.000000 0.000000 
									CHANNELS 3 Zrotation Yrotation Xrotation
									End Site
									{
										OFFSET -0.032641 -0.000000 0.032641 
									}
								}
							}
						}
					}
				}
			}
		}
	}
}
MOTION
Frames: 13
Frame Time: 0.033383
0.000000 0.965071 0.000000 0.000000 0.000000 0.000000 0.000000 0.000000 0.000000 0.000000 0.000000 0.000000 0.000000 0.000000 0.000000 0.000000 0.000000 0.000000 0.000000 0.000000 0.000000 0.000000 0.000000 0.000000 0.000000 0.000000 0.000000 0.000000 0.000000 0.000000 0.000000 0.000000 0.000000 0.000000 0.000000 0.000000 -7.058600 0.223900 -1.427400 -0.812700 0.531000 3.428000 3.136100 0.016600 4.309000 -10.210900 -6.200600 -19.102301 1.242400 -6.527300 29.690599 1.027900 -4.026700 13.672900 -0.000000 -0.000000 0.000000 -90.469902 -4.274200 25.684500 11.691000 -19.339600 -1.998800 -0.000000 0.000000 -3.700500 21.322399 -11.199600 -4.335500 -7.125000 0.000000 -0.000000 -4.066900 17.998199 2.617900 -0.000000 -0.000000 0.000000 86.996803 3.185200 20.076200 -14.064600 22.827000 -2.853100 0.000000 -0.000000 -6.196200 -9.588800 -30.686300 4.927600 7.125000 -0.000000 -0.000000 24.843399 -59.257301 -8.995500 
0.000000 0.965071 0.000000 0.000000 0.000000 0.000000 0.000000 0.000000 0.000000 0.000000 0.000000 0.000000 0.000000 0.000000 0.000000 0.000000 0.000000 0.000000 0.000000 0.000000 0.000000 0.000000 0.000000 0.000000 0.000000 0.000000 0.000000 0.000000 0.000000 0.000000 0.000000 0.000000 0.000000 0.000000 0.000000 0.000000 -7.577300 0.264000 0.177900 -0.729200 0.423500 2.724300 3.499000 0.024300 2.674900 -7.938600 -3.699400 -19.408100 0.814100 -3.563300 31.179899 0.999100 -2.608600 14.085200 0.000000 0.000000 0.000000 -90.878700 -2.766900 24.946800 11.706500 -19.363001 -2.003900 -0.000000 0.000000 -3.220300 20.830500 -12.111700 -4.564200 -7.125000 0.000000 -0.000000 -4.438800 17.073099 2.948900 0.000000 0.000000 0.000000 86.628998 2.053500 20.737801 -14.264500 23.111500 -2.931100 0.000000 -0.000000 -6.597400 -9.753500 -30.932199 5.049400 7.125000 -0.000000 -0.000000 24.877899 -59.515499 -9.164400 
0.000000 0.965071 0.000000 0.000000 0.000000 0.000000 0.000000 0.000000 0.000000 0.000000 0.000000 0.000000 0.000000 0.000000 0.000000 0.000000 0.000000 0.000000 0.000000 0.000000 0.000000 0.000000 0.000000 0.000000 0.000000 0.000000 0.000000 0.000000 0.000000 0.000000 0.000000 0.000000 0.000000 0.000000 0.000000 0.000000 -7.011600 0.369600 -0.264900 -0.545500 0.610800 3.258700 3.381800 0.087300 3.460400 -5.439200 -1.540300 -20.100300 0.191500 -0.975500 31.413799 0.782800 -1.280700 14.154900 0.000000 -0.000000 0.000000 -90.734398 -3.471700 26.192200 11.826200 -19.543501 -2.043800 -0.000000 0.000000 -4.186900 20.899900 -12.755200 -4.819200 -7.125000 0.000000 -0.000000 -4.412200 16.385000 2.997400 0.000000 -0.000000 0.000000 86.606796 3.285400 20.045401 -14.219400 23.047600 -2.913500 0.000000 -0.000000 -6.383900 -9.940300 -30.870300 5.138300 7.125000 -0.000000 -0.000000 24.635099 -59.502499 -9.060400 
0.000000 0.965071 0.000000 0.000000 0.000000 0.000000 0.000000 0.000000 0.000000 0.000000 0.000000 0.000000 0.000000 0.000000 0.000000 0.000000 0.000000 0.000000 0.000000 0.000000 0.000000 0.000000 0.000000 0.000000 0.000000 0.000000 0.000000 0.000000 0.000000 0.000000 0.000000 0.000000 0.000000 0.000000 0.000000 0.000000 -6.556500 0.310600 -0.215200 -0.355900 0.516700 3.241200 3.320800 0.054200 3.422900 -3.354200 0.358500 -20.079399 -0.508500 1.287200 32.005001 0.543100 -0.177400 14.343500 0.000000 -0.000000 0.000000 -90.936699 -3.303200 26.099800 11.932400 -19.703199 -2.079500 -0.000000 0.000000 -4.056200 20.291000 -11.733100 -4.299800 -7.125000 0.000000 -0.000000 -4.804500 17.520800 3.146300 0.000000 -0.000000 0.000000 86.418503 3.128400 20.224899 -14.393900 23.295000 -2.982100 0.000000 -0.000000 -6.676300 -10.070100 -30.792801 5.194700 7.125000 -0.000000 -0.000000 24.438101 -59.462399 -8.958700 
0.000000 0.965071 0.000000 0.000000 0.000000 0.000000 0.000000 0.000000 0.000000 0.000000 0.000000 0.000000 0.000000 0.000000 0.000000 0.000000 0.000000 0.000000 0.000000 0.000000 0.000000 0.000000 0.000000 0.000000 0.000000 0.000000 0.000000 0.000000 0.000000 0.000000 0.000000 0.000000 0.000000 0.000000 0.000000 0.000000 -6.796500 0.259000 -0.565100 -0.277900 0.487000 3.532400 3.538400 0.005600 3.929100 -2.147000 1.274200 -20.136499 -1.136700 2.429400 32.051399 0.285200 0.372500 14.383300 0.000000 0.000000 0.000000 -90.996399 -3.606400 26.398899 12.034200 -19.855900 -2.113900 -0.000000 0.000000 -4.493700 20.227699 -12.631500 -4.606800 -7.125000 0.000000 -0.000000 -4.873700 16.578699 3.292500 0.000000 0.000000 0.000000 86.351799 3.264600 20.294600 -14.575700 23.551701 -3.054400 0.000000 -0.000000 -6.661300 -10.007100 -31.031099 5.197500 7.125000 -0.000000 -0.000000 24.700001 -59.662399 -9.181500 
0.000000 0.965071 0.000000 0.000000 0.000000 0.000000 0.000000 0.000000 0.000000 0.000000 0.000000 0.000000 0.000000 0.000000 0.000000 0.000000 0.000000 0.000000 0.000000 0.000000 0.000000 0.000000 0.000000 0.000000 0.000000 0.000000 0.000000 0.000000 0.000000 0.000000 0.000000 0.000000 0.000000 0.000000 0.000000 0.000000 -6.045300 0.264400 -1.020800 -0.014900 0.503500 3.418300 3.394700 0.036000 4.064400 -2.240200 1.363100 -19.852200 -0.912000 2.511400 31.864300 0.406000 0.438700 14.229700 -0.000000 -0.000000 0.000000 -91.149597 -3.591100 26.361601 12.200000 -20.103901 -2.170500 -0.000000 0.000000 -4.315000 19.454800 -11.990400 -4.197000 -7.125000 0.000000 -0.000000 -5.394400 17.320900 3.559600 -0.000000 -0.000000 0.000000 86.321899 3.292500 19.681200 -14.354800 23.239700 -2.966700 0.000000 -0.000000 -6.406600 -9.622300 -30.538000 4.923500 7.125000 -0.000000 -0.000000 24.688400 -59.131599 -8.859900 
0.000000 0.965071 0.000000 0.000000 0.000000 0.000000 0.000000 0.000000 0.000000 0.000000 0.000000 0.000000 0.000000 0.000000 0.000000 0.000000 0.000000 0.000000 0.000000 0.000000 0.000000 0.000000 0.000000 0.000000 0.000000 0.000000 0.000000 0.000000 0.000000 0.000000 0.000000 0.000000 0.000000 0.000000 0.000000 0.000000 -6.595800 0.141800 -0.633100 -0.091600 0.319300 3.027000 3.613400 -0.041000 3.456900 -2.381700 1.322800 -19.405800 -0.832600 2.441600 31.976000 0.445400 0.396700 14.177600 -0.000000 -0.000000 0.000000 -91.210503 -2.827400 26.765100 12.380300 -20.372601 -2.232900 -0.000000 0.000000 -5.000000 19.919600 -12.075300 -4.335300 -7.125000 0.000000 -0.000000 -5.072400 17.191999 3.359800 -0.000000 -0.000000 0.000000 86.228401 2.571700 19.704300 -14.493100 23.435200 -3.021400 0.000000 -0.000000 -6.122000 -9.928500 -30.157200 5.025400 7.125000 -0.000000 -0.000000 24.071501 -58.856998 -8.461500 
0.000000 0.965071 0.000000 0.000000 0.000000 0.000000 0.000000 0.000000 0.000000 0.000000 0.000000 0.000000 0.000000 0.000000 0.000000 0.000000 0.000000 0.000000 0.000000 0.000000 0.000000 0.000000 0.000000 0.000000 0.000000 0.000000 0.000000 0.000000 0.000000 0.000000 0.000000 0.000000 0.000000 0.000000 0.000000 0.000000 -6.032400 0.041000 -1.312800 0.179700 0.220100 3.296500 3.578700 -0.104900 4.132400 -2.484000 1.016700 -19.582800 -0.905600 2.077000 31.668600 0.372600 0.231700 14.085300 0.000000 -0.000000 0.000000 -91.433098 -3.175600 26.679600 12.462600 -20.494801 -2.261700 -0.000000 0.000000 -4.787600 19.986500 -11.689700 -4.214500 -7.125000 0.000000 -0.000000 -5.016300 17.592501 3.278200 0.000000 -0.000000 0.000000 85.964600 3.306900 19.829800 -14.237200 23.072800 -2.920400 0.000000 -0.000000 -6.251500 -10.346500 -30.061199 5.225300 7.125000 -0.000000 -0.000000 23.569201 -58.863098 -8.275600 
0.000000 0.965071 0.000000 0.000000 0.000000 0.000000 0.000000 0.000000 0.000000 0.000000 0.000000 0.000000 0.000000 0.000000 0.000000 0.000000 0.000000 0.000000 0.000000 0.000000 0.000000 0.000000 0.000000 0.000000 0.000000 0.000000 0.000000 0.000000 0.000000 0.000000 0.000000 0.000000 0.000000 0.000000 0.000000 0.000000 -6.142800 -0.008000 -1.256400 0.325800 0.148600 3.188200 3.789300 -0.138700 3.995500 -2.636200 0.898700 -19.268900 -0.824600 1.923700 31.240400 0.403900 0.174800 13.828100 -0.000000 0.000000 0.000000 -91.621498 -3.083800 27.178101 12.313800 -20.273500 -2.209800 -0.000000 0.000000 -5.407900 19.861300 -12.099700 -4.330100 -7.125000 0.000000 -0.000000 -5.113500 17.171400 3.389500 -0.000000 0.000000 0.000000 85.697800 3.312000 19.712900 -14.273900 23.124901 -2.934800 0.000000 -0.000000 -6.127800 -10.132900 -30.302000 5.152700 7.125000 -0.000000 -0.000000 23.977400 -59.033600 -8.528700 
0.000000 0.965071 0.000000 0.000000 0.000000 0.000000 0.000000 0.000000 0.000000 0.000000 0.000000 0.000000 0.000000 0.000000 0.000000 0.000000 0.000000 0.000000 0.000000 0.000000 0.000000 0.000000 0.000000 0.000000 0.000000 0.000000 0.000000 0.000000 0.000000 0.000000 0.000000 0.000000 0.000000 0.000000 0.000000 0.000000 -5.899400 -0.092300 -1.348700 0.427100 0.029600 2.990200 3.752600 -0.181100 3.852600 -2.603300 0.940400 -19.333300 -0.855600 1.967700 31.754499 0.391800 0.172500 14.067300 -0.000000 0.000000 0.000000 -91.779503 -2.601800 27.457701 12.521200 -20.581699 -2.282200 -0.000000 0.000000 -5.516900 19.835699 -12.360300 -4.415400 -7.125000 0.000000 -0.000000 -5.138000 16.899500 3.436500 -0.000000 0.000000 0.000000 85.621803 3.146700 19.132799 -14.269100 23.118099 -2.932900 0.000000 -0.000000 -5.782500 -10.003200 -30.841801 5.167000 7.125000 -0.000000 -0.000000 24.547001 -59.491199 -9.018800 
0.000000 0.965071 0.000000 0.000000 0.000000 0.000000 0.000000 0.000000 0.000000 0.000000 0.000000 0.000000 0.000000 0.000000 0.000000 0.000000 0.000000 0.000000 0.000000 0.000000 0.000000 0.000000 0.000000 0.000000 0.000000 0.000000 0.000000 0.000000 0.000000 0.000000 0.000000 0.000000 0.000000 0.000000 0.000000 0.000000 -5.641500 -0.229200 -1.765100 0.503900 -0.135600 3.033300 3.679500 -0.265800 4.150000 -1.819700 1.319200 -20.279499 -1.363500 2.415100 33.444099 0.125300 0.321000 15.061900 -0.000000 -0.000000 0.000000 -91.737000 -3.013800 27.476700 12.395800 -20.395599 -2.238300 -0.000000 0.000000 -5.765100 19.347300 -11.702600 -4.073700 -7.125000 0.000000 -0.000000 -5.463700 17.631901 3.568400 -0.000000 -0.000000 0.000000 85.565697 3.375600 19.235901 -14.357500 23.243500 -2.967700 0.000000 -0.000000 -5.748700 -9.770800 -30.469101 4.990500 7.125000 -0.000000 -0.000000 24.481100 -59.103100 -8.762800 
0.000000 0.965071 0.000000 0.000000 0.000000 0.000000 0.000000 0.000000 0.000000 0.000000 0.000000 0.000000 0.000000 0.000000 0.000000 0.000000 0.000000 0.000000 0.000000 0.000000 0.000000 0.000000 0.000000 0.000000 0.000000 0.000000 0.000000 0.000000 0.000000 0.000000 0.000000 0.000000 0.000000 0.000000 0.000000 0.000000 -5.105500 -0.258500 -1.932700 0.715100 -0.191600 3.072000 3.594600 -0.284500 4.287200 -2.093200 1.453400 -20.400900 -0.979600 2.526000 34.707199 0.347400 0.333100 15.678700 -0.000000 0.000000 0.000000 -91.808701 -3.062300 28.068600 12.601000 -20.699900 -2.310400 -0.000000 0.000000 -6.330700 19.308599 -11.119200 -3.865500 -7.125000 0.000000 -0.000000 -5.481000 18.247200 3.505200 -0.000000 0.000000 0.000000 85.434898 3.427900 19.373199 -14.410200 23.318100 -2.988600 0.000000 -0.000000 -6.268200 -10.591400 -31.097300 5.516500 7.125000 -0.000000 -0.000000 24.153299 -59.856602 -9.076400 
0.000000 0.965071 0.000000 0.000000 0.000000 0.000000 0.000000 0.000000 0.000000 0.000000 0.000000 0.000000 0.000000 0.000000 0.000000 0.000000 0.000000 0.000000 0.000000 0.000000 0.000000 0.000000 0.000000 0.000000 0.000000 0.000000 0.000000 0.000000 0.000000 0.000000 0.000000 0.000000 0.000000 0.000000 0.000000 0.000000 -4.760600 -0.235500 -1.356500 0.878300 -0.212800 2.668800 3.569300 -0.257500 3.539300 -1.903600 1.714700 -19.545300 -0.777600 2.632000 35.914501 0.403600 0.371700 16.067301 0.000000 -0.000000 0.000000 -91.702301 -2.651900 28.474800 12.893400 -21.130800 -2.414700 -0.000000 0.000000 -6.526800 19.749701 -11.029700 -3.929400 -7.125000 0.000000 -0.000000 -5.169100 18.306801 3.297300 0.000000 -0.000000 0.000000 85.389999 2.761100 19.297800 -14.477800 23.413601 -3.015400 0.000000 -0.000000 -6.214500 -9.788600 -30.682100 5.031100 7.125000 -0.000000 -0.000000 24.635700 -59.298698 -8.939200 
